<?xml version="1.0" encoding="UTF-8"?>
<svg width="86px" height="86px" viewBox="0 0 86 86" version="1.1" xmlns="http://www.w3.org/2000/svg" xmlns:xlink="http://www.w3.org/1999/xlink">
    <!-- Generator: Sketch 52.6 (67491) - http://www.bohemiancoding.com/sketch -->
    <title>icon</title>
    <desc>Created with Sketch.</desc>
    <g id="Page-1" stroke="none" stroke-width="1" fill="none" fill-rule="evenodd">
        <g id="Desktop-HD" transform="translate(-187.000000, -539.000000)" fill-rule="nonzero">
            <g id="Group" transform="translate(135.000000, 491.000000)">
                <g id="icon" transform="translate(52.000000, 48.000000)">
                    <circle id="Oval" fill="#F5F7F9" cx="43" cy="43" r="43"></circle>
                    <path d="M24.8543623,44.5669641 C24.6131281,44.1809894 24.43954,43.7566731 24.3410742,43.3122916 C22.5223219,35.1040972 24.4919671,31 30.2500097,31 C36.0080509,31 37.9776965,35.1040953 36.1589465,43.3122859 C36.0604815,43.7566677 35.8868934,44.1809843 35.6456591,44.5669591 L34.2290777,46.8334912 C34.1735577,46.9223233 34.1323403,47.0193273 34.1069335,47.1209545 C33.9729848,47.6567494 34.2987454,48.1996839 34.8345404,48.3336327 L39.9850809,49.6212678 C40.8754149,49.8438513 41.5000097,50.6438175 41.5000097,51.5615528 L41.5000097,52.6244424 C41.5000097,53.4774589 40.9589854,54.2365939 40.1526649,54.5149541 C37.2849182,55.5049847 33.9840331,56 30.2500097,56 C26.5159823,56 23.2150942,55.5049836 20.3473454,54.5149509 C19.5410251,54.236585 19,53.4774485 19,52.6244303 L19.0000097,51.5615528 C19.0000097,50.6438175 19.6246044,49.8438513 20.5149384,49.6212678 L25.665479,48.3336327 C25.7671063,48.3082259 25.8641103,48.2670085 25.9529423,48.2114885 C26.4212789,47.9187781 26.563652,47.3018278 26.2709417,46.8334912 L24.8543623,44.5669641 Z M47.4999647,31 L55.4999647,31 C56.3283919,31 56.9999647,31.6715729 56.9999647,32.5 C56.9999647,33.3284271 56.3283919,34 55.4999647,34 L47.4999647,34 C46.6715376,34 45.9999647,33.3284271 45.9999647,32.5 C45.9999647,31.6715729 46.6715376,31 47.4999647,31 Z M47.4999647,38 L66.4999647,38 C67.3283919,38 67.9999647,38.6715729 67.9999647,39.5 C67.9999647,40.3284271 67.3283919,41 66.4999647,41 L47.4999647,41 C46.6715376,41 45.9999647,40.3284271 45.9999647,39.5 C45.9999647,38.6715729 46.6715376,38 47.4999647,38 Z M47.4999647,45 L66.4999647,45 C67.3283919,45 67.9999647,45.6715729 67.9999647,46.5 C67.9999647,47.3284271 67.3283919,48 66.4999647,48 L47.4999647,48 C46.6715376,48 45.9999647,47.3284271 45.9999647,46.5 C45.9999647,45.6715729 46.6715376,45 47.4999647,45 Z M47.4999647,52 L66.4999647,52 C67.3283919,52 67.9999647,52.6715729 67.9999647,53.5 C67.9999647,54.3284271 67.3283919,55 66.4999647,55 L47.4999647,55 C46.6715376,55 45.9999647,54.3284271 45.9999647,53.5 C45.9999647,52.6715729 46.6715376,52 47.4999647,52 Z" id="Combined-Shape" fill="#007BFF"></path>
                </g>
            </g>
        </g>
    </g>
</svg>